<svg xmlns="http://www.w3.org/2000/svg" width="30" height="30" fill="none" viewBox="0 0 30 30">
  <path fill="currentColor" d="M28.05 1.23c-.3 0-.57-.3-.57-.63s.27-.6.57-.6c.36 0 .69.27.69.6 0 .33-.33.63-.69.63Zm-14.97 0c-.33 0-.63-.3-.63-.63s.3-.6.63-.6.66.27.66.6c0 .33-.33.63-.66.63Zm-2.43 0c-.39 0-.69-.3-.69-.63s.3-.6.69-.6c.3 0 .57.27.57.6 0 .33-.27.63-.57.63Zm-2.52 0c-.33 0-.6-.3-.6-.63s.27-.6.6-.6c.33 0 .6.27.6.6 0 .33-.27.63-.6.63Zm-2.52 0c-.33 0-.6-.3-.6-.63s.27-.6.6-.6c.33 0 .63.27.63.6 0 .33-.3.63-.63.63Zm-2.52 0c-.33 0-.6-.3-.6-.63s.27-.6.6-.6c.33 0 .63.27.63.6 0 .33-.3.63-.63.63Zm-2.49 0c-.33 0-.6-.3-.6-.63S.27 0 .6 0c.33 0 .63.27.63.6 0 .33-.3.63-.63.63Zm15 0c-.36 0-.63-.3-.63-.63s.27-.6.63-.6c.33 0 .6.27.6.6 0 .33-.27.63-.6.63Zm2.52 0c-.36 0-.63-.3-.63-.63s.27-.6.63-.6c.33 0 .6.27.6.6 0 .33-.27.63-.6.63Zm2.49 0c-.36 0-.63-.3-.63-.63s.27-.6.63-.6c.33 0 .6.27.6.6 0 .33-.27.63-.6.63Zm2.52 0c-.36 0-.69-.3-.69-.63s.33-.6.69-.6c.33 0 .6.27.6.6 0 .33-.27.63-.6.63Zm2.46 0c-.36 0-.63-.3-.63-.63s.27-.6.63-.6c.39 0 .66.27.66.6 0 .33-.27.63-.66.63ZM11.85 3.57c-.33 0-.63-.27-.63-.6 0-.33.3-.63.63-.63s.6.3.6.63-.27.6-.6.6Zm17.52 0c-.33 0-.6-.27-.6-.6 0-.33.27-.63.6-.63.36 0 .63.3.63.63s-.27.6-.63.6Zm-20.01 0c-.33 0-.63-.27-.63-.6 0-.33.3-.63.63-.63s.6.3.6.63-.27.6-.6.6Zm-7.47 0c-.33 0-.66-.27-.66-.6 0-.33.33-.63.66-.63.3 0 .6.3.6.63s-.3.6-.6.6Zm19.95 0c-.36 0-.63-.27-.63-.6 0-.33.27-.63.63-.63.33 0 .6.3.6.63s-.27.6-.6.6Zm-7.47 0c-.33 0-.63-.27-.63-.6 0-.33.3-.63.63-.63s.6.3.6.63-.27.6-.6.6Zm-10.02 0c-.36 0-.63-.27-.63-.6 0-.33.27-.63.63-.63s.66.3.66.63-.3.6-.66.6Zm12.54 0c-.42 0-.69-.27-.69-.6 0-.33.27-.63.69-.63.33 0 .6.3.6.63s-.27.6-.6.6Zm9.96 0c-.33 0-.6-.27-.6-.6 0-.33.27-.63.6-.63.36 0 .63.3.63.63s-.27.6-.63.6Zm-2.52 0c-.33 0-.6-.27-.6-.6 0-.33.27-.63.6-.63.36 0 .63.3.63.63s-.27.6-.63.6Zm-17.49 0c-.33 0-.6-.27-.6-.6 0-.33.27-.63.6-.63.33 0 .69.3.69.63s-.36.6-.69.6Zm12.48 0c-.33 0-.6-.27-.6-.6 0-.33.27-.63.6-.63.39 0 .66.3.66.63s-.27.6-.66.6Zm-6.24 2.4c-.33 0-.63-.27-.63-.6 0-.33.3-.63.63-.63s.66.3.66.63-.33.6-.66.6Zm7.53 0c-.36 0-.63-.27-.63-.6 0-.33.27-.63.63-.63.33 0 .6.3.6.63s-.27.6-.6.6Zm-17.52 0c-.33 0-.6-.27-.6-.6 0-.33.27-.63.6-.63.33 0 .63.3.63.63s-.3.6-.63.6Zm20.04 0c-.36 0-.69-.27-.69-.6 0-.33.33-.63.69-.63.33 0 .6.3.6.63s-.27.6-.6.6Zm-7.53 0c-.36 0-.63-.27-.63-.6 0-.33.27-.63.63-.63.33 0 .6.3.6.63s-.27.6-.6.6Zm9.99 0c-.36 0-.63-.27-.63-.6 0-.33.27-.63.63-.63.39 0 .66.3.66.63s-.27.6-.66.6ZM.6 5.97c-.33 0-.6-.27-.6-.6 0-.33.27-.63.6-.63.33 0 .63.3.63.63s-.3.6-.63.6Zm27.45 0c-.3 0-.57-.27-.57-.6 0-.33.27-.63.57-.63.36 0 .69.3.69.63s-.33.6-.69.6Zm-19.92 0c-.33 0-.6-.27-.6-.6 0-.33.27-.63.6-.63.33 0 .6.3.6.63s-.27.6-.6.6Zm9.99 0c-.36 0-.63-.27-.63-.6 0-.33.27-.63.63-.63.33 0 .6.3.6.63s-.27.6-.6.6Zm-12.51 0c-.33 0-.6-.27-.6-.6 0-.33.27-.63.6-.63.33 0 .63.3.63.63s-.3.6-.63.6Zm5.04 0c-.39 0-.69-.27-.69-.6 0-.33.3-.63.69-.63.3 0 .57.3.57.63s-.27.6-.57.6Zm-8.76 2.4c-.33 0-.66-.27-.66-.6 0-.39.33-.69.66-.69.3 0 .6.3.6.69 0 .33-.3.6-.6.6Zm15 0c-.42 0-.69-.27-.69-.6 0-.39.27-.69.69-.69.33 0 .6.3.6.69 0 .33-.27.6-.6.6Zm-12.54 0c-.36 0-.63-.27-.63-.6 0-.39.27-.69.63-.69s.66.3.66.69c0 .33-.3.6-.66.6Zm10.02 0c-.33 0-.63-.27-.63-.6 0-.39.3-.69.63-.69s.6.3.6.69c0 .33-.27.6-.6.6Zm-7.53 0c-.33 0-.6-.27-.6-.6 0-.39.27-.69.6-.69.33 0 .69.3.69.69 0 .33-.36.6-.69.6Zm22.53 0c-.33 0-.6-.27-.6-.6 0-.39.27-.69.6-.69.36 0 .63.3.63.69 0 .33-.27.6-.63.6Zm-20.01 0c-.33 0-.63-.27-.63-.6 0-.39.3-.69.63-.69s.6.3.6.69c0 .33-.27.6-.6.6Zm12.48 0c-.36 0-.63-.27-.63-.6 0-.39.27-.69.63-.69.33 0 .6.3.6.69 0 .33-.27.6-.6.6Zm-9.99 0c-.33 0-.63-.27-.63-.6 0-.39.3-.69.63-.69s.6.3.6.69c0 .33-.27.6-.6.6Zm12.48 0c-.33 0-.6-.27-.6-.6 0-.39.27-.69.6-.69.36 0 .63.3.63.69 0 .33-.27.6-.63.6Zm-5.01 0c-.33 0-.6-.27-.6-.6 0-.39.27-.69.6-.69.39 0 .66.3.66.69 0 .33-.27.6-.66.6Zm7.53 0c-.33 0-.6-.27-.6-.6 0-.39.27-.69.6-.69.36 0 .63.3.63.69 0 .33-.27.6-.63.6Zm-1.26 2.4c-.36 0-.63-.24-.63-.66 0-.33.27-.6.63-.6.39 0 .66.27.66.6 0 .42-.27.66-.66.66Zm-17.46 0c-.33 0-.6-.24-.6-.66 0-.33.27-.6.6-.6.33 0 .6.27.6.6 0 .42-.27.66-.6.66Zm12.48 0c-.36 0-.63-.24-.63-.66 0-.33.27-.6.63-.6.33 0 .6.27.6.6 0 .42-.27.66-.6.66Zm-20.01 0c-.33 0-.6-.24-.6-.66 0-.33.27-.6.6-.6.33 0 .63.27.63.6 0 .42-.3.66-.63.66Zm27.45 0c-.3 0-.57-.24-.57-.66 0-.33.27-.6.57-.6.36 0 .69.27.69.6 0 .42-.33.66-.69.66Zm-22.44 0c-.33 0-.6-.24-.6-.66 0-.33.27-.6.6-.6.33 0 .63.27.63.6 0 .42-.3.66-.63.66Zm5.04 0c-.39 0-.69-.24-.69-.66 0-.33.3-.6.69-.6.3 0 .57.27.57.6 0 .42-.27.66-.57.66Zm7.47 0c-.36 0-.63-.24-.63-.66 0-.33.27-.6.63-.6.33 0 .6.27.6.6 0 .42-.27.66-.6.66Zm-2.52 0c-.36 0-.63-.24-.63-.66 0-.33.27-.6.63-.6.33 0 .6.27.6.6 0 .42-.27.66-.6.66Zm7.53 0c-.36 0-.69-.24-.69-.66 0-.33.33-.6.69-.6.33 0 .6.27.6.6 0 .42-.27.66-.6.66Zm-10.05 0c-.33 0-.63-.24-.63-.66 0-.33.3-.6.63-.6s.66.27.66.6c0 .42-.33.66-.66.66Zm-9.99 0c-.33 0-.6-.24-.6-.66 0-.33.27-.6.6-.6.33 0 .63.27.63.6 0 .42-.3.66-.63.66Zm23.76 2.37c-.33 0-.6-.27-.6-.63 0-.33.27-.6.6-.6.36 0 .63.27.63.6 0 .36-.27.63-.63.63Zm-12.48 0c-.33 0-.63-.27-.63-.63 0-.33.3-.6.63-.6s.6.27.6.6c0 .36-.27.63-.6.63Zm-2.52 0c-.33 0-.63-.27-.63-.63 0-.33.3-.6.63-.6s.6.27.6.6c0 .36-.27.63-.6.63Zm12.48 0c-.33 0-.6-.27-.6-.63 0-.33.27-.6.6-.6.36 0 .63.27.63.6 0 .36-.27.63-.63.63Zm-7.44 0c-.42 0-.69-.27-.69-.63 0-.33.27-.6.69-.6.33 0 .6.27.6.6 0 .36-.27.63-.6.63Zm-15 0c-.33 0-.66-.27-.66-.63 0-.33.33-.6.66-.6.3 0 .6.27.6.6 0 .36-.3.63-.6.63Zm17.43 0c-.33 0-.6-.27-.6-.63 0-.33.27-.6.6-.6.39 0 .66.27.66.6 0 .36-.27.63-.66.63Zm-14.97 0c-.36 0-.63-.27-.63-.63 0-.33.27-.6.63-.6s.66.27.66.6c0 .36-.3.63-.66.63Zm2.49 0c-.33 0-.6-.27-.6-.63 0-.33.27-.6.6-.6.33 0 .69.27.69.6 0 .36-.36.63-.69.63Zm2.52 0c-.33 0-.63-.27-.63-.63 0-.33.3-.6.63-.6s.6.27.6.6c0 .36-.27.63-.6.63Zm20.01 0c-.33 0-.6-.27-.6-.63 0-.33.27-.6.6-.6.36 0 .63.27.63.6 0 .36-.27.63-.63.63Zm-7.53 0c-.36 0-.63-.27-.63-.63 0-.33.27-.6.63-.6.33 0 .6.27.6.6 0 .36-.27.63-.6.63Zm1.29 2.43c-.36 0-.69-.3-.69-.63s.33-.6.69-.6c.33 0 .6.27.6.6 0 .33-.27.63-.6.63Zm-22.53 0c-.33 0-.6-.3-.6-.63s.27-.6.6-.6c.33 0 .63.27.63.6 0 .33-.3.63-.63.63Zm20.01 0c-.36 0-.63-.3-.63-.63s.27-.6.63-.6c.33 0 .6.27.6.6 0 .33-.27.63-.6.63Zm-5.01 0c-.36 0-.63-.3-.63-.63s.27-.6.63-.6c.33 0 .6.27.6.6 0 .33-.27.63-.6.63Zm-4.95 0c-.39 0-.69-.3-.69-.63s.3-.6.69-.6c.3 0 .57.27.57.6 0 .33-.27.63-.57.63Zm14.94 0c-.36 0-.63-.3-.63-.63s.27-.6.63-.6c.39 0 .66.27.66.6 0 .33-.27.63-.66.63Zm-7.47 0c-.36 0-.63-.3-.63-.63s.27-.6.63-.6c.33 0 .6.27.6.6 0 .33-.27.63-.6.63Zm-15.03 0c-.33 0-.6-.3-.6-.63s.27-.6.6-.6c.33 0 .63.27.63.6 0 .33-.3.63-.63.63Zm2.52 0c-.33 0-.6-.3-.6-.63s.27-.6.6-.6c.33 0 .63.27.63.6 0 .33-.3.63-.63.63Zm2.52 0c-.33 0-.6-.3-.6-.63s.27-.6.6-.6c.33 0 .6.27.6.6 0 .33-.27.63-.6.63Zm4.95 0c-.33 0-.63-.3-.63-.63s.3-.6.63-.6.66.27.66.6c0 .33-.33.63-.66.63Zm14.97 0c-.3 0-.57-.3-.57-.63s.27-.6.57-.6c.36 0 .69.27.69.6 0 .33-.33.63-.69.63ZM6.84 18c-.33 0-.6-.3-.6-.63s.27-.6.6-.6c.33 0 .69.27.69.6 0 .33-.36.63-.69.63Zm22.53 0c-.33 0-.6-.3-.6-.63s.27-.6.6-.6c.36 0 .63.27.63.6 0 .33-.27.63-.63.63Zm-7.53 0c-.36 0-.63-.3-.63-.63s.27-.6.63-.6c.33 0 .6.27.6.6 0 .33-.27.63-.6.63ZM1.89 18c-.33 0-.66-.3-.66-.63s.33-.6.66-.6c.3 0 .6.27.6.6 0 .33-.3.63-.6.63Zm7.47 0c-.33 0-.63-.3-.63-.63s.3-.6.63-.6.6.27.6.6c0 .33-.27.63-.6.63Zm9.96 0c-.33 0-.6-.3-.6-.63s.27-.6.6-.6c.39 0 .66.27.66.6 0 .33-.27.63-.66.63Zm-7.47 0c-.33 0-.63-.3-.63-.63s.3-.6.63-.6.6.27.6.6c0 .33-.27.63-.6.63Zm-7.5 0c-.36 0-.63-.3-.63-.63s.27-.6.63-.6.66.27.66.6c0 .33-.3.63-.66.63Zm12.54 0c-.42 0-.69-.3-.69-.63s.27-.6.69-.6c.33 0 .6.27.6.6 0 .33-.27.63-.6.63Zm9.96 0c-.33 0-.6-.3-.6-.63s.27-.6.6-.6c.36 0 .63.27.63.6 0 .33-.27.63-.63.63Zm-12.48 0c-.33 0-.63-.3-.63-.63s.3-.6.63-.6.6.27.6.6c0 .33-.27.63-.6.63Zm9.96 0c-.33 0-.6-.3-.6-.63s.27-.6.6-.6c.36 0 .63.27.63.6 0 .33-.27.63-.63.63Zm1.26 2.37c-.36 0-.63-.27-.63-.6 0-.39.27-.66.63-.66.39 0 .66.27.66.66 0 .33-.27.6-.66.6Zm2.46 0c-.3 0-.57-.27-.57-.6 0-.39.27-.66.57-.66.36 0 .69.27.69.66 0 .33-.33.6-.69.6Zm-27.45 0c-.33 0-.6-.27-.6-.6 0-.39.27-.66.6-.66.33 0 .63.27.63.66 0 .33-.3.6-.63.6Zm22.53 0c-.36 0-.69-.27-.69-.6 0-.39.33-.66.69-.66.33 0 .6.27.6.66 0 .33-.27.6-.6.6Zm-20.04 0c-.33 0-.6-.27-.6-.6 0-.39.27-.66.6-.66.33 0 .63.27.63.66 0 .33-.3.6-.63.6Zm2.52 0c-.33 0-.6-.27-.6-.6 0-.39.27-.66.6-.66.33 0 .63.27.63.66 0 .33-.3.6-.63.6Zm2.52 0c-.33 0-.6-.27-.6-.6 0-.39.27-.66.6-.66.33 0 .6.27.6.66 0 .33-.27.6-.6.6Zm2.52 0c-.39 0-.69-.27-.69-.6 0-.39.3-.66.69-.66.3 0 .57.27.57.66 0 .33-.27.6-.57.6Zm2.43 0c-.33 0-.63-.27-.63-.6 0-.39.3-.66.63-.66s.66.27.66.66c0 .33-.33.6-.66.6Zm2.52 0c-.36 0-.63-.27-.63-.6 0-.39.27-.66.63-.66.33 0 .6.27.6.66 0 .33-.27.6-.6.6Zm2.52 0c-.36 0-.63-.27-.63-.6 0-.39.27-.66.63-.66.33 0 .6.27.6.66 0 .33-.27.6-.6.6Zm2.49 0c-.36 0-.63-.27-.63-.6 0-.39.27-.66.63-.66.33 0 .6.27.6.66 0 .33-.27.6-.6.6Zm1.23 2.43c-.36 0-.63-.33-.63-.66 0-.36.27-.63.63-.63.33 0 .6.27.6.63 0 .33-.27.66-.6.66Zm-17.49 0c-.36 0-.63-.33-.63-.66 0-.36.27-.63.63-.63s.66.27.66.63c0 .33-.3.66-.66.66Zm-2.46 0c-.33 0-.66-.33-.66-.66 0-.36.33-.63.66-.63.3 0 .6.27.6.63 0 .33-.3.66-.6.66Zm4.95 0c-.33 0-.6-.33-.6-.66 0-.36.27-.63.6-.63.33 0 .69.27.69.63 0 .33-.36.66-.69.66Zm20.01 0c-.33 0-.6-.33-.6-.66 0-.36.27-.63.6-.63.36 0 .63.27.63.63 0 .33-.27.66-.63.66Zm-17.49 0c-.33 0-.63-.33-.63-.66 0-.36.3-.63.63-.63s.6.27.6.63c0 .33-.27.66-.6.66Zm2.49 0c-.33 0-.63-.33-.63-.66 0-.36.3-.63.63-.63s.6.27.6.63c0 .33-.27.66-.6.66Zm12.48 0c-.33 0-.6-.33-.6-.66 0-.36.27-.63.6-.63.36 0 .63.27.63.63 0 .33-.27.66-.63.66Zm-9.96 0c-.33 0-.63-.33-.63-.66 0-.36.3-.63.63-.63s.6.27.6.63c0 .33-.27.66-.6.66Zm2.52 0c-.42 0-.69-.33-.69-.66 0-.36.27-.63.69-.63.33 0 .6.27.6.63 0 .33-.27.66-.6.66Zm12.48 0c-.33 0-.6-.33-.6-.66 0-.36.27-.63.6-.63.36 0 .63.27.63.63 0 .33-.27.66-.63.66Zm-10.05 0c-.33 0-.6-.33-.6-.66 0-.36.27-.63.6-.63.39 0 .66.27.66.63 0 .33-.27.66-.66.66Zm6.27 2.37c-.36 0-.63-.27-.63-.6 0-.36.27-.63.63-.63.39 0 .66.27.66.63 0 .33-.27.6-.66.6Zm-9.99 0c-.36 0-.63-.27-.63-.6 0-.36.27-.63.63-.63.33 0 .6.27.6.63 0 .33-.27.6-.6.6Zm2.52 0c-.36 0-.63-.27-.63-.6 0-.36.27-.63.63-.63.33 0 .6.27.6.63 0 .33-.27.6-.6.6Zm-5.04 0c-.33 0-.63-.27-.63-.6 0-.36.3-.63.63-.63s.66.27.66.63c0 .33-.33.6-.66.6Zm-12.48 0c-.33 0-.6-.27-.6-.6 0-.36.27-.63.6-.63.33 0 .63.27.63.63 0 .33-.3.6-.63.6Zm20.01 0c-.36 0-.63-.27-.63-.6 0-.36.27-.63.63-.63.33 0 .6.27.6.63 0 .33-.27.6-.6.6Zm-9.96 0c-.39 0-.69-.27-.69-.6 0-.36.3-.63.69-.63.3 0 .57.27.57.63 0 .33-.27.6-.57.6Zm-7.56 0c-.33 0-.6-.27-.6-.6 0-.36.27-.63.6-.63.33 0 .63.27.63.63 0 .33-.3.6-.63.6Zm5.04 0c-.33 0-.6-.27-.6-.6 0-.36.27-.63.6-.63.33 0 .6.27.6.63 0 .33-.27.6-.6.6Zm19.92 0c-.3 0-.57-.27-.57-.6 0-.36.27-.63.57-.63.36 0 .69.27.69.63 0 .33-.33.6-.69.6Zm-4.92 0c-.36 0-.69-.27-.69-.6 0-.36.33-.63.69-.63.33 0 .6.27.6.63 0 .33-.27.6-.6.6Zm-17.52 0c-.33 0-.6-.27-.6-.6 0-.36.27-.63.6-.63.33 0 .63.27.63.63 0 .33-.3.6-.63.6Zm21.24 2.43c-.33 0-.6-.27-.6-.63 0-.33.27-.6.6-.6.36 0 .63.27.63.6 0 .36-.27.63-.63.63Zm-2.52 0c-.33 0-.6-.27-.6-.63 0-.33.27-.6.6-.6.36 0 .63.27.63.6 0 .36-.27.63-.63.63Zm-2.49 0c-.36 0-.63-.27-.63-.63 0-.33.27-.6.63-.6.33 0 .6.27.6.6 0 .36-.27.63-.6.63Zm-19.95 0c-.33 0-.66-.27-.66-.63 0-.33.33-.6.66-.6.3 0 .6.27.6.6 0 .36-.3.63-.6.63Zm17.43 0c-.33 0-.6-.27-.6-.63 0-.33.27-.6.6-.6.39 0 .66.27.66.6 0 .36-.27.63-.66.63Zm-2.43 0c-.42 0-.69-.27-.69-.63 0-.33.27-.6.69-.6.33 0 .6.27.6.6 0 .36-.27.63-.6.63Zm-12.54 0c-.36 0-.63-.27-.63-.63 0-.33.27-.6.63-.6s.66.27.66.6c0 .36-.3.63-.66.63Zm10.02 0c-.33 0-.63-.27-.63-.63 0-.33.3-.6.63-.6s.6.27.6.6c0 .36-.27.63-.6.63Zm15 0c-.33 0-.6-.27-.6-.63 0-.33.27-.6.6-.6.36 0 .63.27.63.6 0 .36-.27.63-.63.63Zm-17.52 0c-.33 0-.63-.27-.63-.63 0-.33.3-.6.63-.6s.6.27.6.6c0 .36-.27.63-.6.63Zm-2.49 0c-.33 0-.63-.27-.63-.63 0-.33.3-.6.63-.6s.6.27.6.6c0 .36-.27.63-.6.63Zm-2.52 0c-.33 0-.6-.27-.6-.63 0-.33.27-.6.6-.6.33 0 .69.27.69.6 0 .36-.36.63-.69.63ZM15.6 30c-.36 0-.63-.27-.63-.63 0-.33.27-.6.63-.6.33 0 .6.27.6.6 0 .36-.27.63-.6.63Zm-15 0c-.33 0-.6-.27-.6-.63 0-.33.27-.6.6-.6.33 0 .63.27.63.6 0 .36-.3.63-.63.63Zm2.49 0c-.33 0-.6-.27-.6-.63 0-.33.27-.6.6-.6.33 0 .63.27.63.6 0 .36-.3.63-.63.63Zm2.52 0c-.33 0-.6-.27-.6-.63 0-.33.27-.6.6-.6.33 0 .63.27.63.6 0 .36-.3.63-.63.63Zm2.52 0c-.33 0-.6-.27-.6-.63 0-.33.27-.6.6-.6.33 0 .6.27.6.6 0 .36-.27.63-.6.63Zm2.52 0c-.39 0-.69-.27-.69-.63 0-.33.3-.6.69-.6.3 0 .57.27.57.6 0 .36-.27.63-.57.63Zm2.43 0c-.33 0-.63-.27-.63-.63 0-.33.3-.6.63-.6s.66.27.66.6c0 .36-.33.63-.66.63Zm5.04 0c-.36 0-.63-.27-.63-.63 0-.33.27-.6.63-.6.33 0 .6.27.6.6 0 .36-.27.63-.6.63Zm2.49 0c-.36 0-.63-.27-.63-.63 0-.33.27-.6.63-.6.33 0 .6.27.6.6 0 .36-.27.63-.6.63Zm2.52 0c-.36 0-.69-.27-.69-.63 0-.33.33-.6.69-.6.33 0 .6.27.6.6 0 .36-.27.63-.6.63Zm2.46 0c-.36 0-.63-.27-.63-.63 0-.33.27-.6.63-.6.39 0 .66.27.66.6 0 .36-.27.63-.66.63Zm2.46 0c-.3 0-.57-.27-.57-.63 0-.33.27-.6.57-.6.36 0 .69.27.69.6 0 .36-.33.63-.69.63Z"/>
</svg>
